<?xml version="1.0" standalone="no"?><!DOCTYPE svg PUBLIC "-//W3C//DTD SVG 1.1//EN" "http://www.w3.org/Graphics/SVG/1.1/DTD/svg11.dtd"><svg t="1774447070569" class="icon" viewBox="0 0 1024 1024" version="1.1" xmlns="http://www.w3.org/2000/svg" p-id="5824" width="64" height="64" xmlns:xlink="http://www.w3.org/1999/xlink"><path d="M791.246 682.092v0.448l-180.574-90.8c7.946-35.786 1.658-74.422-19.826-105.972l33.034-26.376c38.834 23.712 88.926 17.994 121.346-13.85 38.32-38.372 38.32-100.9 0-139.252-38.4-38.292-100.58-38.292-139.45 0-33.588 33.85-37.396 85.828-12.166 123.998l-30.822 24.766a139.7 139.7 0 0 0-72.746-28.718l-17.98-152.756a152.412 152.412 0 0 0 39.3-27.17c53.044-53.12 53.044-139.6 0-192.678-53.68-52.976-140.106-52.976-193.046 0-53.126 53.078-53.126 139.56 0 192.678a136.842 136.842 0 0 0 81.428 39.186l31.438 148.276a140.516 140.516 0 0 0-49.828 31.488 143.52 143.52 0 0 0-17.982 22.404l-178.096-89.332a54.312 54.312 0 0 0-15.156-40.328c-20.524-20.334-53.72-20.334-74.24 0-20.734 20.52-20.816 53.87-0.182 74.488l0.18 0.18c19.17 19.146 49.972 19.88 70.658 2.71l180.226 90.146a133.7 133.7 0 0 0 2.008 79.78l-136.276 95.014c-54.026-36.584-126.616-29.584-172.568 16.64-53.234 53.172-53.234 139.14 0 192.312 52.288 52.862 137.766 53.562 190.922 1.564 0.528-0.518 1.054-1.04 1.574-1.564 35.94-35.642 49.022-88.18 33.956-136.382l114.976-114.894a139.816 139.816 0 0 0 73.484 37.884l44.83 143.898a92.686 92.686 0 0 0-29.594 19.98c-34.986 34.83-34.986 91.264 0 126.096 34.652 34.726 91.404 34.726 126.26 0 34.736-34.686 34.736-91.308 0-126.076a88.482 88.482 0 0 0-55.726-25.52l-43.704-137.99a137.688 137.688 0 0 0 77.416-38.292 139.58 139.58 0 0 0 6.43-7.128l171.256 112.754c-4.454 40.984 9.97 81.774 39.24 110.962 53.146 53.06 139.328 53.06 192.924 0 53.106-53.078 53.106-139.192 0-192.574-53.596-53.1-139.778-53.1-192.924 0z" fill="#2c2c2c" p-id="5825"></path></svg>